<svg width="36" height="36" viewBox="0 0 36 36" fill="none" xmlns="http://www.w3.org/2000/svg">
<rect x="0.5" y="0.5" width="35" height="35" rx="17.5" stroke="#E3E9EE"/>
<path d="M13.5124 17C13.5124 16.4107 13.6285 15.8272 13.854 15.2827C14.0796 14.7383 14.4101 14.2436 14.8268 13.8269C15.2435 13.4102 15.7382 13.0796 16.2827 12.8541C16.8271 12.6286 17.4106 12.5125 17.9999 12.5125C18.5893 12.5125 19.1728 12.6286 19.7172 12.8541C20.2617 13.0796 20.7564 13.4102 21.1731 13.8269C21.5898 14.2436 21.9203 14.7383 22.1459 15.2827C22.3714 15.8272 22.4874 16.4107 22.4874 17V17C22.4874 19.2375 22.9562 20.5375 23.3687 21.25C23.4125 21.3259 23.4356 21.412 23.4357 21.4996C23.4358 21.5872 23.4128 21.6733 23.3691 21.7493C23.3255 21.8252 23.2626 21.8884 23.1868 21.9324C23.1111 21.9764 23.0251 21.9997 22.9374 22H13.0624C12.9748 21.9997 12.8888 21.9764 12.8131 21.9324C12.7373 21.8884 12.6744 21.8252 12.6308 21.7493C12.5871 21.6733 12.5641 21.5872 12.5642 21.4996C12.5643 21.412 12.5874 21.3259 12.6312 21.25C13.0437 20.5375 13.5124 19.2375 13.5124 17Z" stroke="#667085" stroke-width="1.05" stroke-linecap="round" stroke-linejoin="round"/>
<path d="M16 22V22.5C16 23.0304 16.2107 23.5391 16.5858 23.9142C16.9609 24.2893 17.4696 24.5 18 24.5C18.5304 24.5 19.0391 24.2893 19.4142 23.9142C19.7893 23.5391 20 23.0304 20 22.5V22" stroke="#667085" stroke-width="1.05" stroke-linecap="round" stroke-linejoin="round"/>
<path d="M21.4625 11.5C22.4806 12.1426 23.3022 13.0529 23.8375 14.1312" stroke="#667085" stroke-width="1.05" stroke-linecap="round" stroke-linejoin="round"/>
<path d="M12.1625 14.1312C12.6978 13.0529 13.5194 12.1426 14.5375 11.5" stroke="#667085" stroke-width="1.05" stroke-linecap="round" stroke-linejoin="round"/>
</svg>
