<svg width="151" height="36" viewBox="0 0 151 36" fill="none" xmlns="http://www.w3.org/2000/svg">
<rect width="36" height="36" rx="18" fill="#0B1433"/>
<g clip-path="url(#clip0_10_64)">
<path d="M17.9999 9C22.9706 9 26.9999 13.0293 26.9999 18V24.3C26.9999 25.0161 26.7155 25.7028 26.2091 26.2092C25.7028 26.7155 25.016 27 24.2999 27H18.4499V23.0517C18.4499 22.1508 18.5048 21.2175 18.9773 20.4507C19.3156 19.9012 19.7681 19.4308 20.3042 19.0716C20.8402 18.7123 21.4473 18.4726 22.0841 18.3686L22.2565 18.3406C22.3275 18.3164 22.3892 18.2705 22.4329 18.2094C22.4766 18.1483 22.5001 18.0751 22.5001 18C22.5001 17.9249 22.4766 17.8517 22.4329 17.7906C22.3892 17.7295 22.3275 17.6836 22.2565 17.6593L22.0841 17.6314C21.1536 17.4794 20.2943 17.039 19.6276 16.3723C18.9609 15.7056 18.5205 14.8463 18.3685 13.9158L18.3406 13.7435C18.3163 13.6724 18.2704 13.6107 18.2093 13.567C18.1482 13.5234 18.075 13.4999 17.9999 13.4999C17.9249 13.4999 17.8516 13.5234 17.7906 13.567C17.7295 13.6107 17.6836 13.6724 17.6593 13.7435L17.6314 13.9158C17.5274 14.5527 17.2877 15.1597 16.9284 15.6958C16.5691 16.2318 16.0988 16.6843 15.5492 17.0226C14.7824 17.4951 13.8491 17.55 12.9482 17.55H9.01074C9.24609 12.7885 13.1804 9 17.9999 9Z" fill="#FECC32"/>
<path d="M9 18.45H12.9483C13.8492 18.45 14.7825 18.5049 15.5493 18.9774C16.1487 19.3467 16.6533 19.8513 17.0226 20.4507C17.4951 21.2175 17.55 22.1508 17.55 23.0517V27H11.7C10.9839 27 10.2972 26.7155 9.79081 26.2092C9.28446 25.7028 9 25.0161 9 24.3V18.45ZM27 9.9C27 10.1387 26.9052 10.3676 26.7364 10.5364C26.5676 10.7052 26.3387 10.8 26.1 10.8C25.8613 10.8 25.6324 10.7052 25.4636 10.5364C25.2948 10.3676 25.2 10.1387 25.2 9.9C25.2 9.66131 25.2948 9.43239 25.4636 9.2636C25.6324 9.09482 25.8613 9 26.1 9C26.3387 9 26.5676 9.09482 26.7364 9.2636C26.9052 9.43239 27 9.66131 27 9.9Z" fill="#FECC32"/>
</g>
<path d="M46.364 23L49.976 13.2H51.6L55.184 23H53.616L52.776 20.606H48.772L47.932 23H46.364ZM49.192 19.43H52.356L50.774 14.964L49.192 19.43ZM56.4946 23V12.92H57.9786V23H56.4946ZM63.1479 23.168C62.4666 23.168 61.8553 23.014 61.3139 22.706C60.7819 22.398 60.3619 21.9733 60.0539 21.432C59.7553 20.8813 59.6059 20.2467 59.6059 19.528C59.6059 18.8093 59.7553 18.1793 60.0539 17.638C60.3619 17.0873 60.7819 16.658 61.3139 16.35C61.8553 16.042 62.4666 15.888 63.1479 15.888C64.0066 15.888 64.7253 16.112 65.3039 16.56C65.8919 17.008 66.2699 17.6147 66.4379 18.38H64.8839C64.7906 17.9973 64.5853 17.6987 64.2679 17.484C63.9506 17.2693 63.5773 17.162 63.1479 17.162C62.7839 17.162 62.4479 17.2553 62.1399 17.442C61.8319 17.6193 61.5846 17.8853 61.3979 18.24C61.2113 18.5853 61.1179 19.0147 61.1179 19.528C61.1179 20.0413 61.2113 20.4753 61.3979 20.83C61.5846 21.1753 61.8319 21.4413 62.1399 21.628C62.4479 21.8147 62.7839 21.908 63.1479 21.908C63.5773 21.908 63.9506 21.8007 64.2679 21.586C64.5853 21.3713 64.7906 21.068 64.8839 20.676H66.4379C66.2793 21.4227 65.9059 22.0247 65.3179 22.482C64.7299 22.9393 64.0066 23.168 63.1479 23.168ZM68.0474 23V12.92H69.5314V17.176C69.7647 16.7747 70.0867 16.462 70.4974 16.238C70.9174 16.0047 71.3794 15.888 71.8834 15.888C72.714 15.888 73.3674 16.1493 73.8434 16.672C74.3194 17.1947 74.5574 17.974 74.5574 19.01V23H73.0874V19.164C73.0874 17.82 72.5507 17.148 71.4774 17.148C70.9174 17.148 70.4507 17.344 70.0774 17.736C69.7134 18.128 69.5314 18.688 69.5314 19.416V23H68.0474ZM79.5532 23.168C78.8719 23.168 78.2652 23.0187 77.7332 22.72C77.2105 22.412 76.7999 21.9873 76.5012 21.446C76.2025 20.9047 76.0532 20.2747 76.0532 19.556C76.0532 18.828 76.1979 18.1887 76.4872 17.638C76.7859 17.0873 77.1965 16.658 77.7192 16.35C78.2512 16.042 78.8672 15.888 79.5672 15.888C80.2485 15.888 80.8412 16.042 81.3452 16.35C81.8492 16.6487 82.2412 17.05 82.5212 17.554C82.8012 18.058 82.9412 18.6133 82.9412 19.22C82.9412 19.3133 82.9365 19.416 82.9272 19.528C82.9272 19.6307 82.9225 19.7473 82.9132 19.878H77.5092C77.5559 20.55 77.7752 21.0633 78.1672 21.418C78.5685 21.7633 79.0305 21.936 79.5532 21.936C79.9732 21.936 80.3232 21.8427 80.6032 21.656C80.8925 21.46 81.1072 21.1987 81.2472 20.872H82.7312C82.5445 21.5253 82.1712 22.0713 81.6112 22.51C81.0605 22.9487 80.3745 23.168 79.5532 23.168ZM79.5532 17.106C79.0585 17.106 78.6199 17.2553 78.2372 17.554C77.8545 17.8433 77.6212 18.282 77.5372 18.87H81.4572C81.4292 18.3287 81.2379 17.8993 80.8832 17.582C80.5285 17.2647 80.0852 17.106 79.5532 17.106ZM84.481 23V16.056H85.797L85.923 17.036C86.147 16.6813 86.441 16.4013 86.805 16.196C87.1783 15.9907 87.6076 15.888 88.093 15.888C89.1943 15.888 89.9596 16.322 90.389 17.19C90.641 16.7887 90.977 16.4713 91.397 16.238C91.8263 16.0047 92.2883 15.888 92.783 15.888C93.651 15.888 94.3323 16.1493 94.827 16.672C95.3216 17.1947 95.569 17.974 95.569 19.01V23H94.085V19.164C94.085 17.82 93.5716 17.148 92.545 17.148C92.0223 17.148 91.593 17.344 91.257 17.736C90.9303 18.128 90.767 18.688 90.767 19.416V23H89.283V19.164C89.283 17.82 88.765 17.148 87.729 17.148C87.2156 17.148 86.791 17.344 86.455 17.736C86.1283 18.128 85.965 18.688 85.965 19.416V23H84.481ZM97.8984 26.08L99.5644 22.426H99.1584L96.4144 16.056H98.0244L100.152 21.194L102.378 16.056H103.946L99.4664 26.08H97.8984ZM107.569 23.168C106.692 23.168 105.969 22.9533 105.399 22.524C104.83 22.0947 104.503 21.5253 104.419 20.816H105.917C105.992 21.1333 106.169 21.4087 106.449 21.642C106.729 21.866 107.098 21.978 107.555 21.978C108.003 21.978 108.33 21.8847 108.535 21.698C108.741 21.5113 108.843 21.2967 108.843 21.054C108.843 20.6993 108.699 20.4613 108.409 20.34C108.129 20.2093 107.737 20.0927 107.233 19.99C106.841 19.906 106.449 19.794 106.057 19.654C105.675 19.514 105.353 19.318 105.091 19.066C104.839 18.8047 104.713 18.4547 104.713 18.016C104.713 17.4093 104.947 16.9053 105.413 16.504C105.88 16.0933 106.533 15.888 107.373 15.888C108.148 15.888 108.773 16.0747 109.249 16.448C109.735 16.8213 110.019 17.3487 110.103 18.03H108.675C108.629 17.7313 108.489 17.498 108.255 17.33C108.031 17.162 107.728 17.078 107.345 17.078C106.972 17.078 106.683 17.1573 106.477 17.316C106.272 17.4653 106.169 17.6613 106.169 17.904C106.169 18.1467 106.309 18.338 106.589 18.478C106.879 18.618 107.257 18.744 107.723 18.856C108.19 18.9587 108.619 19.08 109.011 19.22C109.413 19.3507 109.735 19.5467 109.977 19.808C110.22 20.0693 110.341 20.452 110.341 20.956C110.351 21.5907 110.103 22.118 109.599 22.538C109.105 22.958 108.428 23.168 107.569 23.168ZM114.614 23C113.932 23 113.391 22.8367 112.99 22.51C112.588 22.174 112.388 21.5813 112.388 20.732V17.302H111.198V16.056H112.388L112.57 14.292H113.872V16.056H115.832V17.302H113.872V20.732C113.872 21.1147 113.951 21.3807 114.11 21.53C114.278 21.67 114.562 21.74 114.964 21.74H115.762V23H114.614ZM125.313 23.168C124.343 23.168 123.503 22.958 122.793 22.538C122.093 22.1087 121.552 21.516 121.169 20.76C120.787 19.9947 120.595 19.1127 120.595 18.114C120.595 17.106 120.787 16.224 121.169 15.468C121.552 14.7027 122.093 14.1053 122.793 13.676C123.503 13.2467 124.343 13.032 125.313 13.032C126.461 13.032 127.399 13.312 128.127 13.872C128.855 14.432 129.317 15.216 129.513 16.224H127.861C127.731 15.6547 127.451 15.202 127.021 14.866C126.592 14.53 126.018 14.362 125.299 14.362C124.319 14.362 123.545 14.698 122.975 15.37C122.406 16.0327 122.121 16.9473 122.121 18.114C122.121 19.2713 122.406 20.1813 122.975 20.844C123.545 21.5067 124.319 21.838 125.299 21.838C126.018 21.838 126.592 21.6793 127.021 21.362C127.451 21.0447 127.731 20.6107 127.861 20.06H129.513C129.317 21.0307 128.855 21.7913 128.127 22.342C127.399 22.8927 126.461 23.168 125.313 23.168ZM133.44 23.168C132.852 23.168 132.367 23.07 131.984 22.874C131.602 22.678 131.317 22.4213 131.13 22.104C130.944 21.7773 130.85 21.4227 130.85 21.04C130.85 20.368 131.112 19.836 131.634 19.444C132.157 19.052 132.904 18.856 133.874 18.856H135.694V18.73C135.694 18.1887 135.545 17.7827 135.246 17.512C134.957 17.2413 134.579 17.106 134.112 17.106C133.702 17.106 133.342 17.2087 133.034 17.414C132.736 17.61 132.554 17.904 132.488 18.296H131.004C131.051 17.792 131.219 17.3627 131.508 17.008C131.807 16.644 132.18 16.3687 132.628 16.182C133.086 15.986 133.585 15.888 134.126 15.888C135.097 15.888 135.848 16.1447 136.38 16.658C136.912 17.162 137.178 17.8527 137.178 18.73V23H135.89L135.764 21.81C135.568 22.1927 135.284 22.5147 134.91 22.776C134.537 23.0373 134.047 23.168 133.44 23.168ZM133.734 21.964C134.136 21.964 134.472 21.8707 134.742 21.684C135.022 21.488 135.237 21.2313 135.386 20.914C135.545 20.5967 135.643 20.2467 135.68 19.864H134.028C133.44 19.864 133.02 19.9667 132.768 20.172C132.526 20.3773 132.404 20.634 132.404 20.942C132.404 21.2593 132.521 21.5113 132.754 21.698C132.997 21.8753 133.324 21.964 133.734 21.964ZM139.259 23V17.302H138.265V16.056H139.259V15.048C139.259 14.292 139.445 13.7507 139.819 13.424C140.201 13.088 140.738 12.92 141.429 12.92H142.157V14.18H141.653C141.326 14.18 141.093 14.25 140.953 14.39C140.813 14.5207 140.743 14.7447 140.743 15.062V16.056H142.339V17.302H140.743V23H139.259ZM146.723 23.168C146.042 23.168 145.435 23.0187 144.903 22.72C144.38 22.412 143.97 21.9873 143.671 21.446C143.372 20.9047 143.223 20.2747 143.223 19.556C143.223 18.828 143.368 18.1887 143.657 17.638C143.956 17.0873 144.366 16.658 144.889 16.35C145.421 16.042 146.037 15.888 146.737 15.888C147.418 15.888 148.011 16.042 148.515 16.35C149.019 16.6487 149.411 17.05 149.691 17.554C149.971 18.058 150.111 18.6133 150.111 19.22C150.111 19.3133 150.106 19.416 150.097 19.528C150.097 19.6307 150.092 19.7473 150.083 19.878H144.679C144.726 20.55 144.945 21.0633 145.337 21.418C145.738 21.7633 146.2 21.936 146.723 21.936C147.143 21.936 147.493 21.8427 147.773 21.656C148.062 21.46 148.277 21.1987 148.417 20.872H149.901C149.714 21.5253 149.341 22.0713 148.781 22.51C148.23 22.9487 147.544 23.168 146.723 23.168ZM146.723 17.106C146.228 17.106 145.79 17.2553 145.407 17.554C145.024 17.8433 144.791 18.282 144.707 18.87H148.627C148.599 18.3287 148.408 17.8993 148.053 17.582C147.698 17.2647 147.255 17.106 146.723 17.106Z" fill="#101326"/>
<defs>
<clipPath id="clip0_10_64">
<rect width="18" height="18" fill="white" transform="translate(9 9)"/>
</clipPath>
</defs>
</svg>
