<svg width="112" height="36" viewBox="0 0 112 36" fill="none" xmlns="http://www.w3.org/2000/svg">
<path fill-rule="evenodd" clip-rule="evenodd" d="M4.43939 36H13.3217L8.88053 28.3018L13.3217 20.6246L8.88053 12.9264L0 28.3018L4.43939 36Z" fill="#005CFF"/>
<path fill-rule="evenodd" clip-rule="evenodd" d="M7.44877 0L0 12.9264H8.88053L16.3504 0H7.44877Z" fill="#005CFF"/>
<path fill-rule="evenodd" clip-rule="evenodd" d="M31.0829 36L22.2024 20.6246L28.8623 9.06679H19.9818C17.7612 12.9247 15.5407 16.765 13.3219 20.6246L22.2024 36H31.0829Z" fill="#005CFF"/>
<path d="M44.7149 26V9.2H47.7869V15.992L54.0029 9.2H57.7949L51.6029 15.872L57.9629 26H54.1949L49.3949 18.224L47.7869 19.976V26H44.7149ZM63.2782 26.288C62.2542 26.288 61.4142 26.128 60.7582 25.808C60.1022 25.472 59.6142 25.032 59.2942 24.488C58.9742 23.944 58.8142 23.344 58.8142 22.688C58.8142 21.584 59.2462 20.688 60.1102 20C60.9742 19.312 62.2702 18.968 63.9982 18.968H67.0222V18.68C67.0222 17.864 66.7902 17.264 66.3262 16.88C65.8622 16.496 65.2862 16.304 64.5982 16.304C63.9742 16.304 63.4302 16.456 62.9662 16.76C62.5022 17.048 62.2142 17.48 62.1022 18.056H59.1022C59.1822 17.192 59.4702 16.44 59.9662 15.8C60.4782 15.16 61.1342 14.672 61.9342 14.336C62.7342 13.984 63.6302 13.808 64.6222 13.808C66.3182 13.808 67.6542 14.232 68.6302 15.08C69.6062 15.928 70.0942 17.128 70.0942 18.68V26H67.4782L67.1902 24.08C66.8382 24.72 66.3422 25.248 65.7022 25.664C65.0782 26.08 64.2702 26.288 63.2782 26.288ZM63.9742 23.888C64.8542 23.888 65.5342 23.6 66.0142 23.024C66.5102 22.448 66.8222 21.736 66.9502 20.888H64.3342C63.5182 20.888 62.9342 21.04 62.5822 21.344C62.2302 21.632 62.0542 21.992 62.0542 22.424C62.0542 22.888 62.2302 23.248 62.5822 23.504C62.9342 23.76 63.3982 23.888 63.9742 23.888ZM77.9458 26.288C76.8898 26.288 75.9618 26.12 75.1618 25.784C74.3618 25.432 73.7218 24.952 73.2418 24.344C72.7618 23.736 72.4738 23.032 72.3778 22.232H75.4738C75.5698 22.696 75.8258 23.096 76.2418 23.432C76.6738 23.752 77.2258 23.912 77.8978 23.912C78.5698 23.912 79.0578 23.776 79.3618 23.504C79.6818 23.232 79.8418 22.92 79.8418 22.568C79.8418 22.056 79.6178 21.712 79.1698 21.536C78.7218 21.344 78.0978 21.16 77.2978 20.984C76.7858 20.872 76.2658 20.736 75.7378 20.576C75.2098 20.416 74.7218 20.216 74.2738 19.976C73.8418 19.72 73.4898 19.4 73.2178 19.016C72.9458 18.616 72.8098 18.128 72.8098 17.552C72.8098 16.496 73.2258 15.608 74.0578 14.888C74.9058 14.168 76.0898 13.808 77.6098 13.808C79.0178 13.808 80.1378 14.136 80.9698 14.792C81.8178 15.448 82.3218 16.352 82.4818 17.504H79.5778C79.4018 16.624 78.7378 16.184 77.5858 16.184C77.0098 16.184 76.5618 16.296 76.2418 16.52C75.9378 16.744 75.7858 17.024 75.7858 17.36C75.7858 17.712 76.0178 17.992 76.4818 18.2C76.9458 18.408 77.5618 18.6 78.3298 18.776C79.1618 18.968 79.9218 19.184 80.6098 19.424C81.3138 19.648 81.8738 19.992 82.2898 20.456C82.7058 20.904 82.9138 21.552 82.9138 22.4C82.9298 23.136 82.7378 23.8 82.3378 24.392C81.9378 24.984 81.3618 25.448 80.6098 25.784C79.8578 26.12 78.9698 26.288 77.9458 26.288ZM90.5551 26.288C89.4991 26.288 88.5711 26.12 87.7711 25.784C86.9711 25.432 86.3311 24.952 85.8511 24.344C85.3711 23.736 85.0831 23.032 84.9871 22.232H88.0831C88.1791 22.696 88.4351 23.096 88.8511 23.432C89.2831 23.752 89.8351 23.912 90.5071 23.912C91.1791 23.912 91.6671 23.776 91.9711 23.504C92.2911 23.232 92.4511 22.92 92.4511 22.568C92.4511 22.056 92.2271 21.712 91.7791 21.536C91.3311 21.344 90.7071 21.16 89.9071 20.984C89.3951 20.872 88.8751 20.736 88.3471 20.576C87.8191 20.416 87.3311 20.216 86.8831 19.976C86.4511 19.72 86.0991 19.4 85.8271 19.016C85.5551 18.616 85.4191 18.128 85.4191 17.552C85.4191 16.496 85.8351 15.608 86.6671 14.888C87.5151 14.168 88.6991 13.808 90.2191 13.808C91.6271 13.808 92.7471 14.136 93.5791 14.792C94.4271 15.448 94.9311 16.352 95.0911 17.504H92.1871C92.0111 16.624 91.3471 16.184 90.1951 16.184C89.6191 16.184 89.1711 16.296 88.8511 16.52C88.5471 16.744 88.3951 17.024 88.3951 17.36C88.3951 17.712 88.6271 17.992 89.0911 18.2C89.5551 18.408 90.1711 18.6 90.9391 18.776C91.7711 18.968 92.5311 19.184 93.2191 19.424C93.9231 19.648 94.4831 19.992 94.8991 20.456C95.3151 20.904 95.5231 21.552 95.5231 22.4C95.5391 23.136 95.3471 23.8 94.9471 24.392C94.5471 24.984 93.9711 25.448 93.2191 25.784C92.4671 26.12 91.5791 26.288 90.5551 26.288ZM102.349 26.288C101.325 26.288 100.485 26.128 99.8285 25.808C99.1725 25.472 98.6845 25.032 98.3645 24.488C98.0445 23.944 97.8845 23.344 97.8845 22.688C97.8845 21.584 98.3165 20.688 99.1805 20C100.045 19.312 101.341 18.968 103.069 18.968H106.093V18.68C106.093 17.864 105.861 17.264 105.397 16.88C104.933 16.496 104.357 16.304 103.669 16.304C103.045 16.304 102.501 16.456 102.037 16.76C101.573 17.048 101.285 17.48 101.173 18.056H98.1725C98.2525 17.192 98.5405 16.44 99.0365 15.8C99.5485 15.16 100.205 14.672 101.005 14.336C101.805 13.984 102.701 13.808 103.693 13.808C105.389 13.808 106.725 14.232 107.701 15.08C108.677 15.928 109.165 17.128 109.165 18.68V26H106.549L106.261 24.08C105.909 24.72 105.413 25.248 104.773 25.664C104.149 26.08 103.341 26.288 102.349 26.288ZM103.045 23.888C103.925 23.888 104.605 23.6 105.085 23.024C105.581 22.448 105.893 21.736 106.021 20.888H103.405C102.589 20.888 102.005 21.04 101.653 21.344C101.301 21.632 101.125 21.992 101.125 22.424C101.125 22.888 101.301 23.248 101.653 23.504C102.005 23.76 102.469 23.888 103.045 23.888Z" fill="#101326"/>
</svg>
